<?xml version="1.0" encoding="UTF-8" standalone="no"?>
<svg
   xmlns:dc="http://purl.org/dc/elements/1.1/"
   xmlns:cc="http://creativecommons.org/ns#"
   xmlns:rdf="http://www.w3.org/1999/02/22-rdf-syntax-ns#"
   xmlns:svg="http://www.w3.org/2000/svg"
   xmlns="http://www.w3.org/2000/svg"
   xmlns:sodipodi="http://sodipodi.sourceforge.net/DTD/sodipodi-0.dtd"
   xmlns:inkscape="http://www.inkscape.org/namespaces/inkscape"
   version="1.0"
   width="700.000000pt"
   height="700.000000pt"
   viewBox="0 0 700.000000 700.000000"
   preserveAspectRatio="xMidYMid meet"
   id="svg32"
   sodipodi:docname="logo.svg"
   inkscape:version="0.92.1 r15371">
  <defs
     id="defs36" />
  <sodipodi:namedview
     pagecolor="#ffffff"
     bordercolor="#666666"
     borderopacity="1"
     objecttolerance="10"
     gridtolerance="10"
     guidetolerance="10"
     inkscape:pageopacity="0"
     inkscape:pageshadow="2"
     inkscape:window-width="1854"
     inkscape:window-height="1057"
     id="namedview34"
     showgrid="false"
     inkscape:zoom="1"
     inkscape:cx="422.15302"
     inkscape:cy="396.57604"
     inkscape:window-x="-8"
     inkscape:window-y="-8"
     inkscape:window-maximized="1"
     inkscape:current-layer="svg32" />
  <metadata
     id="metadata10">
Created by potrace 1.12, written by Peter Selinger 2001-2015
<rdf:RDF>
  <cc:Work
     rdf:about="">
    <dc:format>image/svg+xml</dc:format>
    <dc:type
       rdf:resource="http://purl.org/dc/dcmitype/StillImage" />
    <dc:title></dc:title>
  </cc:Work>
</rdf:RDF>
</metadata>
  <g
     transform="translate(0.000000,700.000000) scale(0.100000,-0.100000)"
     fill="#ffffff"
     stroke="none"
     id="g30"
     style="opacity:1">
	 
    <path
       d="M3357 6570 c-76 -5 -152 -10 -170 -14 -18 -3 -54 -8 -82 -11 -125 -15 -365 -70 -516 -119 -267 -86 -527 -210 -737 -351 -82 -55 -99 -62 -112 -51 -47 41 -94 24 -211 -72 -193 -161 -605 -645 -688 -809 -23 -46 -28 -112 -10 -130 9 -9 -5 -46 -54 -145 -105 -213 -173 -397 -221 -594 -15 -60 -31 -125 -36 -145 -34 -126 -80 -621 -63 -666 4 -11 204 -13 1094 -13 1013 0 1089 -1 1089 -17 0 -9 4 -30 9 -47 6 -17 19 -70 30 -119 70 -295 317 -541 631 -628 122 -34 328 -34 450 0 319 88 555 326 635 643 14 53 25 113 25 132 l0 36 1097 0 1096 0 -6 158 c-18 450 -127 872 -327 1272 -56 112 -57 116 -43 144 31 59 -17 150 -209 394 -195 248 -503 563 -590 606 -58 28 -100 28 -116 -1 -7 -12 -28 -2 -108 50 -389 254 -809 409 -1292 477 -72 10 -389 31 -417 28 -5 -1 -72 -4 -148 -8z m349 -130 c431 -28 792 -126 1162 -315 70 -36 143 -74 162 -85 66 -37 263 -175 272 -190 21 -35 -101 -227 -274 -431 -144 -169 -563 -591 -657 -660 -26 -19 -31 -29 -29 -54 3 -32 1 -31 248 -175 119 -69 215 -124 325 -185 28 -15 61 -35 75 -44 14 -9 51 -30 82 -45 48 -24 62 -27 87 -18 27 9 216 131 332 214 165 117 274 198 430 320 105 82 183 136 192 132 15 -5 97 -164 147 -284 71 -169 145 -420 170 -575 4 -27 15 -93 24 -146 10 -54 16 -133 14 -185 l-3 -89 -1024 -3 c-564 -1 -1029 2 -1033 6 -5 5 -17 45 -28 89 -137 576 -826 841 -1327 513 -100 -66 -205 -175 -266 -276 -49 -83 -107 -236 -107 -284 0 -15 -6 -33 -14 -39 -10 -8 -290 -10 -1042 -9 l-1029 3 0 65 c0 187 37 402 118 685 52 184 215 535 247 535 4 0 37 -24 73 -54 266 -218 809 -601 877 -619 25 -7 101 23 170 67 19 13 87 52 150 88 63 36 131 75 150 86 19 10 76 43 125 72 50 29 118 69 153 89 92 53 92 64 -9 158 -402 374 -657 648 -790 848 -57 87 -99 168 -99 193 0 26 109 102 325 225 229 130 368 190 620 265 216 64 341 87 590 106 212 17 226 18 411 6z m-1997 -521 c-1 -64 3 -79 44 -162 87 -180 256 -383 599 -723 128 -127 257 -253 286 -279 29 -27 49 -52 45 -56 -17 -16 -552 -325 -699 -404 l-51 -27 -54 27 c-134 68 -786 546 -947 695 -59 54 -64 62 -59 90 18 86 285 426 546 692 157 162 227 218 267 218 22 0 23 -3 23 -71z m3735 41 c139 -88 601 -613 715 -812 47 -83 42 -98 -56 -182 -276 -238 -915 -695 -972 -696 -8 0 -60 26 -115 59 -56 32 -139 80 -186 106 -47 26 -105 60 -130 76 -44 26 -76 45 -227 130 -110 62 -110 59 -17 142 88 80 435 425 504 502 176 196 294 355 352 472 34 69 42 95 44 150 1 38 3 71 3 76 2 16 39 6 85 -23z m-1739 -1775 c242 -62 436 -251 511 -500 26 -84 26 -286 0 -370 -76 -249 -267 -436 -512 -500 -77 -20 -261 -20 -339 0 -143 38 -301 139 -383 248 -94 125 -141 252 -149 402 -6 126 12 220 67 334 93 193 258 330 462 385 73 20 268 20 343 1z"
       id="path12"
       style="fill:#000000" />
    <path
       d="m 937,2522 -67,-68 v -477 -478 l 138,3 137,3 3,173 2,173 93,-3 92,-3 3,-173 2,-173 138,3 137,3 3,475 2,474 -67,68 -67,68 h -241 -241 z m 403,-302 v -90 h -95 -95 v 90 90 h 95 95 z"
       id="path14"
       inkscape:connector-curvature="0" />
    <path
       d="m 3665,2045 v -546 l 138,3 137,3 3,543 2,542 h -140 -140 z"
       id="path16"
       inkscape:connector-curvature="0" />
    <path
       d="m 1690,1970 v -470 h 306 306 l 69,67 69,66 v 404 403 h -135 -135 l -2,-327 -3,-328 -102,-3 -103,-3 v 331 330 h -135 -135 z"
       id="path18"
       inkscape:connector-curvature="0" />
    <path
       d="m 2495,2298 v -142 l 67,-68 67,-68 -67,-68 -67,-68 v -192 -193 l 138,3 137,3 3,178 2,177 h 100 100 v -180 -180 h 135 135 v 192 192 l -67,68 -67,68 67,68 67,68 v 142 142 h -140 -140 v -150 -150 h -95 -95 v 150 150 h -140 -140 z"
       id="path20"
       inkscape:connector-curvature="0" />
    <path
       d="m 3315,1970 v -471 l 138,3 137,3 v 465 465 l -137,3 -138,3 z"
       id="path22"
       inkscape:connector-curvature="0" />
    <path
       d="m 4010,2428 c -3,-7 -4,-218 -3,-468 l 3,-455 138,-3 137,-3 v 471 470 h -135 c -99,0 -137,-3 -140,-12 z"
       id="path24"
       inkscape:connector-curvature="0" />
    <path
       d="m 4360,2428 c -3,-7 -4,-218 -3,-468 l 3,-455 305,-3 304,-2 68,67 68,67 v 403 403 h -130 -130 l -2,-327 -3,-328 h -105 -105 l -3,328 -2,327 h -130 c -95,0 -132,-3 -135,-12 z"
       id="path26"
       inkscape:connector-curvature="0" />
    <path
       d="m 5162,1973 3,-468 133,-3 132,-3 v 331 330 h 35 35 v -330 -331 l 138,3 137,3 3,328 2,328 33,-3 32,-3 3,-328 2,-328 133,3 132,3 2,395 3,395 -71,73 -72,72 h -408 -409 z"
       id="path28"
       inkscape:connector-curvature="0" />
  </g>
  <path
     style="opacity:1;fill:#1c72d5;stroke-width:1.02903342;fill-opacity:1"
     d="m 79.884791,435.83195 c 1.594951,-33.25644 10.873813,-75.80113 23.554899,-108.00201 6.31894,-16.0456 21.1944,-45.9676 23.54913,-47.36912 1.29897,-0.77313 6.03267,2.42839 22.12422,14.96319 35.21989,27.43516 87.1201,64.08481 100.90746,71.25643 8.54299,4.4437 6.8777,5.15492 60.54179,-25.85606 18.67696,-10.7929 37.19956,-21.50429 41.16134,-23.80311 16.16906,-9.38206 16.1102,-9.88116 -3.34436,-28.35808 C 284.67962,228.1646 251.07274,189.75782 238.29981,162.86166 l -3.65186,-7.68976 2.97004,-3.17957 c 8.00055,-8.565 55.01198,-35.94688 79.76331,-46.45825 20.32088,-8.629868 48.85057,-17.745122 70.87302,-22.643979 24.2662,-5.397978 69.21284,-9.496634 92.61301,-8.445323 51.5483,2.315934 95.73732,11.492757 136.98504,28.447952 36.05211,14.8195 87.15595,45.02863 88.18224,52.12737 1.14799,7.94045 -22.31445,41.00612 -50.93222,71.77887 -16.70965,17.96793 -60.23436,61.15465 -69.53091,68.99095 -6.02207,5.07617 -6.94597,6.31245 -6.94597,9.29444 0,4.75712 2.18419,6.52635 23.48876,19.02638 51.67176,30.31736 78.76415,45.13037 82.62663,45.17688 6.55941,0.079 52.61282,-31.37279 105.66033,-72.15981 9.22563,-7.09339 18.57429,-13.90895 20.77479,-15.14571 l 4.00093,-2.24864 4.05235,6.97634 c 22.39634,38.55653 42.3804,109.14139 42.3804,149.69001 v 13.1849 H 724.79183 587.97396 l -2.16319,-7.46049 C 579.11108,419.018 573.10327,406.31994 562.7533,393.38999 524.91394,346.1183 453.14135,335.91589 404.20434,370.85237 c -14.57056,10.40203 -28.79124,26.3358 -35.67515,39.97276 -4.60569,9.12382 -9.72386,22.92887 -11.12714,30.0128 -0.67269,3.39581 -1.96673,6.75303 -2.87565,7.46049 -1.30313,1.0143 -30.58483,1.28629 -138.47688,1.28629 H 79.22522 Z"
     id="path4513"
     inkscape:connector-curvature="0"
     transform="scale(0.75000002)" />
  <path
     style="opacity:1;fill:#bc0807;fill-opacity:1;stroke-width:1.02903342"
     d="m 250.57908,360.10709 c -21.80563,-12.02147 -105.64626,-73.76896 -126.97369,-93.5144 -3.30455,-3.05943 -6.27712,-6.63379 -6.60572,-7.94302 -1.78556,-7.11425 25.63746,-44.09731 61.00585,-82.27334 26.46181,-28.56241 44.69412,-44.02279 48.01046,-40.7112 0.65703,0.6561 1.46094,5.45387 1.78645,10.66172 0.52449,8.39115 1.08976,10.50071 4.96661,18.53553 12.70445,26.33009 39.85482,58.18458 97.4577,114.34341 l 27.35558,26.66979 -2.41483,1.82601 c -7.08002,5.35365 -95.287,55.44002 -97.60042,55.42023 -0.84895,-0.007 -3.99354,-1.36389 -6.98799,-3.01473 z"
     id="path4519"
     inkscape:connector-curvature="0"
     transform="scale(0.75000002)" />
  <path
     style="opacity:1;fill:#bc0807;fill-opacity:1;stroke-width:1.02903342"
     d="m 652.69875,346.3093 c -67.44336,-38.74125 -66.35549,-38.07884 -66.35549,-40.40437 0,-1.50394 7.28424,-9.22259 23.30689,-24.6968 57.06574,-55.11244 86.82281,-90.05516 99.90049,-117.3098 3.52641,-7.34922 4.26102,-10.00521 4.60662,-16.65537 0.60533,-11.64778 0.95458,-12.78715 3.6793,-12.00268 5.68602,1.63705 17.16422,11.06487 32.26212,26.49905 38.6024,39.4622 74.46582,85.50841 74.46582,95.60905 0,4.65766 -20.61118,22.43365 -61.22749,52.80526 -39.24844,29.34877 -74.61452,52.99226 -79.26612,52.99226 -1.13402,0 -15.25148,-7.57647 -31.37214,-16.8366 z"
     id="path4521"
     inkscape:connector-curvature="0"
     transform="scale(0.75000002)" />
</svg>
