<svg xmlns="http://www.w3.org/2000/svg" version="1" width="1001" height="570" viewBox="-6.2 -1.9 1000.85 570.2"><path fill="#00a4e3" d="M790 195q-5 21-26 40-20 18-52 32t-71 21q-94 18-215 21-112 3-189-7-40-5-78 1-36 6-67 21-30 15-49 36-21 22-26 47-2 8-6 7-5 0-6-8-8-69 17-128 23-54 72-93 48-37 112-53t133-9q70 8 158 14 101 7 180 7l57 1q26 1 50 7 12 21 6 43"/><path fill="#00a4e3" d="M984 20q-14 9-28 24-16 17-28 37-13 22-18 44-6 24-1 45-24 0-48-6-37-10-43-26l-1 11v15l-20-9q-15-5-25-6 12-7 27-24 15-16 26-35 12-19 34-37 19-17 44-30 23-12 44-18 23-5 36-2 9 2 9 7 0 4-8 10"/><path fill="#dcdbd6" d="M792 187q2-19-8-35 27 6 52 23 28 18 42 41l24-6 20-5q7-1 9 3t0 10l-18 33q-12 21-21 31 5 27-13 54-15 24-47 47-27 20-63 38-32 15-62 24l-129 40-114 35q-58 19-117 30-60 12-109 12-65 1-116-23-47-21-83-65-8-9-2-23 4-14 19-31 14-18 35-34 22-17 45-29 26-13 51-18 23-4 56-14 34-10 53-18 70 5 155 2 106-4 195-21 46-8 80-25 30-16 47-36 16-20 19-40"/><path fill="#fff" d="M96 322q29-14 61-20 31-6 52-3l45 5 44 3q-17 7-55 18-34 10-56 14-43 9-82 37-42 30-68 73l-10-22-10-19q4-27 27-51 20-20 52-35"/><path fill="#b4b4b0" d="M856 226l-8 5-5 3q1 6 13 15l12 9q25 11 25 35 1 24-22 52-24 30-67 56-48 29-112 49l-113 35q-89 27-114 36-58 19-114 30-64 12-119 10-133-4-194-86l-3-9q-2-6-1-10l17-28q15-22 28-33 33-27 62-41 13-6 25-9l14-4 33 1 85 1q146-2 305-23 93-12 164-44 73-32 100-74l12 16-8 2-15 6"/><path fill="#b4b4b0" d="M931 209q1 9-11 31-13 24-28 42-4-10-10-16l-16-9-17-8-1-3-5-5q-5-9 4-11-1 3 13 1l31-7 30-10 10-5-1-2 1 2"/><path fill="#008fc5" d="M5 348q2 4 9 5h15q19-4 39-17-23 16-37 39-13 19-15 34-1 4-5 5-4 0-4-6l-3-28 1-32M820 133q6-18 17-34 10-14 28-31 31-28 61-42 36-17 63-11-35 25-56 58-24 36-26 74v11l3 12q-12 1-29-2t-32-8q-16-6-24-12-9-8-5-15"/><path fill="#008fc5" d="M818 137q-2 16 0 27l-11-6q2-13 8-26t13-22q-7 12-10 27"/><path fill="#dbdcdc" d="M85 327q28-15 61-22 34-8 66-5l39 3 43 4-19 8-34-1-38-3q-22-1-47 4-27 6-51 18-58 28-85 80l-4-6q4-23 22-44 18-20 47-36"/><path fill="#0d131a" d="M794 181q0 17-10 34-10 18-30 33-22 17-54 28-38 13-98 22-57 9-125 12-67 3-134 2-67-2-124-9-30-3-63 3-33 7-62 21-30 15-49 36-21 22-25 46-1 5-4 7-2 3-5 3l-5-3-3-7q-9-59 9-114 18-54 61-96 50-49 126-69t166-7q61 8 172 14t188 5q52 0 94 20t62 55l-5 2q-19-33-60-52-13-7-27-11 6 11 5 25m-12-27q-27-7-57-7-89 0-185-4-113-5-175-13-89-13-164 8-74 20-124 69-40 40-57 90-18 52-10 110l1 4 2-4q5-26 26-49 19-21 50-37 29-14 63-21 35-6 68-2 55 6 122 8 67 1 133-2 69-3 125-11 61-9 99-23 28-9 49-25 19-14 30-32 10-16 10-33 1-14-6-26"/><path fill="#0d131a" d="M932 221l-15 30q-12 20-25 35l-1-7q10-13 21-32l15-28q3-8 1-10t-8-1q-12 2-35 10-23 7-42 16h-4q-1-1 2-3 18-9 43-18 23-9 36-11 10-1 14 4 3 4-2 15"/><path fill="#0d131a" d="M883 263q8 7 12 19 3 13 0 28-5 17-18 33-27 35-73 62-45 28-104 45l-119 37-119 38q-72 22-130 32-65 11-116 8-117-7-181-89-5-7-5-15 0-7 4-15 18-32 48-57 46-39 109-53l51-13q28-8 51-17l13 1-56 19-58 15q-62 13-107 54-26 23-44 54-4 7-4 13l4 10q60 73 161 84t258-38l125-38 114-36q62-19 103-44 40-24 69-60 23-28 18-54-2-10-9-18-6-7-14-9l-3-2 3-1q9 0 17 7"/><path fill="#0d131a" d="M28 425l9 21-2 5-10-21-9-19 2-7q5 8 10 21M31 376l11 22 12 25-2 4-12-24-12-23 3-4M65 375l11 24-3 3-11-22-13-26 3-3 13 24M77 334q10 16 23 45l-3 3-12-23-12-22 4-3M115 340l11 22-4 2-11-22q-6-14-11-21l4-2 11 21M131 310l19 40-4 2q-10-23-20-41l5-1M157 303l8 18 9 21-4 2-17-39 4-2M194 337l-17-36h5l16 36h-4M218 331l-14-32 5 1 14 31h-5M239 326l-6-12-5-12h4l11 23-4 1M189 258q2 0 4 3l2 4q0 3-3 4l-4 2-4-2q-2-2-2-5l2-4q2-2 5-2"/><path fill="#fff" d="M188 261l1 1 1 1-1 1-1 1-2-1v-1-1l2-1"/><path fill="#0d131a" d="M633 290q5 9 6 25 1 13-1 29-7 41-27 81-22 43-52 66l-11 2q30-20 54-64 22-42 29-85 3-18 1-31-1-12-5-22l6-1"/><path fill="#0d131a" d="M633 350q-75 17-178 27-100 10-183 10-49 0-81-5-34-5-45-14-2-2-1-3t3 1q12 8 45 12 31 4 79 4 83 0 183-11 104-10 179-27l-1 6M266 436q61 0 150-11 85-12 205-35l-2 7q-118 22-204 33-87 11-149 11-58 0-99-10-39-11-62-31-2-2-1-3h3q24 20 62 30 39 9 97 9"/><path fill="#0d131a" d="M71 427q25 29 73 43 48 15 118 15 70 1 156-13 87-14 185-41l-4 6q-101 28-181 41-78 12-156 12-70 0-120-15-48-16-73-46-2-2-1-3t3 1"/><path fill="#0d131a" d="M55 457q34 37 82 56 47 18 111 19 60 1 144-17 82-17 189-52l-5 8q-83 27-160 44-104 23-168 22-68-2-114-21-48-18-81-57-2-2-1-3t3 1M984 6q-13-3-33 1t-42 15q-23 12-43 29-22 19-37 41-12 18-21 28-20 26-34 30l-7-3q10-1 27-19 15-16 30-39 16-24 39-43 21-17 45-29 23-11 44-15 20-4 33 0 8 2 9 8 1 5-6 10-18 12-34 30t-27 38q-11 21-15 41-5 22 0 41 1 3-3 3-16 0-34-3-17-3-30-9-14-5-22-12t-6-13q2-9 15-16 13-6 28-5 3 0 3 2l-3 1q-13 0-25 5-12 6-14 14-1 4 7 10 7 5 19 10 29 10 59 10-5-19 0-41 4-20 16-42 12-20 28-38 17-17 35-30 5-3 4-6 0-2-5-4"/><path fill="#0d131a" d="M862 72q-22 21-33 43-14 27-9 51l-6-3q-3-25 11-52 13-23 35-41 3-2 4-1t-2 3M934 22q6-4 14-6 8-3 16-3 3 0 3 2l-3 1-14 3-14 5h-3q-1-1 1-2"/><path fill="#00a4e3" d="M658 138q7 13-1 29-6 13-29 38-24 27-43 42-6 4-14 5-7 2-15 1-7-1-11-4-4-4-2-8 9-26 33-73 23-43 37-65 3-4 7-5 4 0 8 3 6 5 15 17l15 20M709 130q8-10 16-3l15 16 13 17q4 5 3 10 0 5-4 11-6 10-31 35-25 24-40 35-5 4-12 4t-13-3q-5-2-8-6t-2-8q7-18 30-57 21-35 33-51"/><path fill="#008fc5" d="M661 151q0 8-4 16-9 16-31 40-23 26-41 39 14-15 35-44l24-35q6-9 8-17 3-10 1-18 8 8 8 19M747 153q14 14 7 27-8 12-33 36l-40 34q11-10 33-37 20-23 27-34 5-6 6-13 2-7 0-13"/><path fill="#0d131a" d="M660 166q-12 20-30 41-21 23-43 39-3 3-4 2t3-4q17-14 40-40 22-25 30-40 3-5 3-11l-2-10q-3-8-15-22-11-14-17-19-4-4-9 1-11 14-36 62-24 46-36 76l-2 3v-4q11-33 35-79 23-45 36-61 3-4 7-4 4-1 8 2 6 5 18 20 12 16 16 24 2 5 1 11 0 8-3 13"/><path fill="#0d131a" d="M640 115l-17 23q-12 16-18 27-1 2-2 1-2 0 0-3l16-26 18-26 3 4M654 133l-12 15-11 19-2 2q-2-1 0-4l11-21 11-16 3 5M726 125l16 16 14 19q4 6 3 11 0 6-5 13-12 15-30 33-21 20-40 33-3 3-4 2t2-4q16-12 38-35 21-22 29-33 4-5 4-9 1-5-2-9l-13-17-15-16-5-2q-3 0-5 3-9 9-32 48-24 39-33 59-1 4-3 3v-4q11-25 32-62 21-36 32-48 4-4 8-4 5-1 9 3"/><path fill="#0d131a" d="M718 152l12-20 3 4-13 19-14 19q-3 2-4 1t1-3l15-20M722 179l13-15 9-15 4 4-11 14-13 14q-2 2-3 1t1-3"/></svg>